<?xml version="1.0" encoding="utf-8"?>
<?xml-stylesheet type="text/xsl" href="rss1.xsl"?>
<rss version="2.0" xmlns:atom="http://www.w3.org/2005/Atom" xmlns:content="http://purl.org/rss/1.0/modules/content/" xmlns:dc="http://purl.org/dc/elements/1.1/" xmlns:media="http://search.yahoo.com/mrss/">
<channel>
 <title>Getty</title>
 <link>http://www.gettyimg.com/</link>
 <atom:link href="http://www.gettyimg.com/" rel="self" type="application/rss+xml" />

 
                <item>
                <title><![CDATA[【Cinema Center】MOVIE - Hostel.2006.1080p.ROKU.WEB-DL.AAC2.0.H.264-Samuel]]></title>
                <link><![CDATA[https://sharemania.us/threads/hostel-2006-1080p-roku-web-dl-aac2-0-h-264-samuel.220081/]]></link>
                <description><![CDATA[<article>
<blockquote class="messageText SelectQuoteContainer ugc baseHtml">
<div style="text-align: center"><b><span style="font-size: 26px">Hostel</span></b><br>
<img src="https://i.imgur.com/RzBGgGF.jpg" class="bbCodeImage LbImage" alt="[​IMG]" data-url="https://i.imgur.com/RzBGgGF.jpg" style=""><br>
<b><a href="https://i.imgur.com/Ou1EXi4.jpg" target="_blank" class="externalLink" rel="nofollow">Alternate Artwork 1</a></b> | <b><a href="https://i.imgur.com/fzKgYFb.jpg" target="_blank" class="externalLink" rel="nofollow">Alternate Artwork 2</a></b> | <b><a href="https://i.imgur.com/r5Yrghx.jpg" target="_blank" class="externalLink" rel="nofollow">Alternate Artwork 3</a></b> | <b><a href="https://i.imgur.com/Meuz5U6.jpg" target="_blank" class="externalLink" rel="nofollow">Poster 1</a></b> | <b><a href="https://i.imgur.com/1hoKVpt.jpg" target="_blank" class="externalLink" rel="nofollow">Poster 2</a></b> | <b><a href="https://i.imgur.com/hMFxBho.jpg" target="_blank" class="externalLink" rel="nofollow">Poster 3</a></b> | <b><a href="https://i.imgur.com/axXrsuM.jpg" target="_blank" class="externalLink" rel="nofollow">Screenshot</a></b><br>
<br>
2006 | R | 1h 35m | Suspense | Horror<br>
Jay Hernandez, Derek Richardson, Eythor Gudjonsson<br>
<b>Directed By:</b> Eli Roth<br>
<br>
<div class="bbCodeBlock bbCodeQuote">
<aside>
<blockquote class="quoteContainer"><div class="quote"><b><span style="font-size: 15px">Description</span></b><br>
Backpackers (Jay Hernandez, Derek Richardson) find that their decision to stay at a Slovakian hostel is a gruesome mistake.</div><div class="quoteExpand">Click to expand...</div></blockquote>
</aside>
</div>
<div class="bbCodeBlock bbCodeQuote">
<aside>
<blockquote class="quoteContainer"><div class="quote"><b><span style="font-size: 15px">Trailers</span></b><br>
<div data-s9e-mediaembed="googledrive" style="display:inline-block;width:100%;max-width:640px"><div style="overflow:hidden;position:relative;padding-bottom:75%"><iframe allowfullscreen="" scrolling="no" src="//drive.google.com/file/d/1vzphvI4UDWty8ejNazaeZgpA12ikU_3G/preview" style="border:0;height:100%;left:0;position:absolute;width:100%"></iframe></div></div></div><div class="quoteExpand quoteCut">Click to expand...</div></blockquote>
</aside>
</div>
<div class="bbCodeBlock bbCodeQuote">
<aside>
<blockquote class="quoteContainer"><div class="quote"><b><span style="font-size: 15px">More Information</span><br>
Cast:</b> Jay Hernandez, Derek Richardson, Eythor Gudjonsson, Barbara Nedeljakova, Jana Kaderabkova, Jan Vlasák, Jennifer Lim, Lubomir Silhavecky, Paula Wild<br>
<b>Genres:</b> Suspense, Horror<br>
<b>Directors:</b> Eli Roth<br>
<br>
<b>Captions:</b> English [Closed caption]<br>
<b>Audio track:</b> English (Original)</div><div class="quoteExpand">Click to expand...</div></blockquote>
</aside>
</div>
<div class="bbCodeBlock bbCodeQuote">
<aside>
<blockquote class="quoteContainer"><div class="quote"><span style="font-size: 15px"><b>Source</b></span><br>
<img src="https://i.imgur.com/sxdbEA9.png" class="bbCodeImage LbImage" alt="[​IMG]" data-url="https://i.imgur.com/sxdbEA9.png" style=""></div><div class="quoteExpand">Click to expand...</div></blockquote>
</aside>
</div>
<div class="bbCodeBlock bbCodeQuote">
<aside>
<blockquote class="quoteContainer"><div class="quote"><b><span style="font-size: 15px">Release Name</span></b><br>
Hostel.2006.1080p.ROKU.WEB-DL.AAC2.0.H.264-Samuel</div><div class="quoteExpand">Click to expand...</div></blockquote>
</aside>
</div>
<div class="ToggleTriggerAnchor bbCodeSpoilerContainer">
<button type="button" class="button bbCodeSpoilerButton ToggleTrigger Tooltip JsOnly" data-target="> .SpoilerTarget"><span>Spoiler: <span class="SpoilerTitle">Media Information</span></span></button>
<div class="SpoilerTarget bbCodeSpoilerText">General<br>
Complete name : Hostel.2006.1080p.ROKU.WEB-DL.AAC2.0.H.264-Samuel.mkv<br>
Format : Matroska<br>
Format version : Version 4<br>
File size : 3.78 GiB<br>
Duration : 1 h 33 min<br>
Overall bit rate : 5 792 kb/s<br>
Frame rate : 29.970 FPS<br>
Encoded date : 2023-04-29 12:55:37 UTC<br>
Writing application : mkvmerge v75.0.0 ('Goliath') 64-bit<br>
Writing library : libebml v1.4.4 + libmatroska v1.7.1<br>
<br>
Video<br>
ID : 1<br>
Format : AVC<br>
Format/Info : Advanced Video Codec<br>
Format profile : High@L4<br>
Format settings : CABAC / 3 Ref Frames<br>
Format settings, CABAC : Yes<br>
Format settings, Reference frames : 3 frames<br>
Codec ID : V_MPEG4/ISO/AVC<br>
Duration : 1 h 33 min<br>
Bit rate mode : Constant<br>
Bit rate : 5 672 kb/s<br>
Width : 1 920 pixels<br>
Height : 1 080 pixels<br>
Display aspect ratio : 16:9<br>
Frame rate mode : Constant<br>
Frame rate : 29.970 (30000/1001) FPS<br>
Color space : YUV<br>
Chroma subsampling : 4:2:0<br>
Bit depth : 8 bits<br>
Scan type : Progressive<br>
Bits/(Pixel*Frame) : 0.091<br>
Stream size : 3.70 GiB (98%)<br>
Default : Yes<br>
Forced : No<br>
<br>
Audio<br>
ID : 2<br>
Format : AAC LC<br>
Format/Info : Advanced Audio Codec Low Complexity<br>
Codec ID : A_AAC-2<br>
Duration : 1 h 33 min<br>
Bit rate : 126 kb/s<br>
Channel(s) : 2 channels<br>
Channel layout : L R<br>
Sampling rate : 44.1 kHz<br>
Frame rate : 43.066 FPS (1024 SPF)<br>
Compression mode : Lossy<br>
Stream size : 83.9 MiB (2%)<br>
Language : English<br>
Default : Yes<br>
Forced : No<br>
<br>
Text<br>
ID : 3<br>
Format : UTF-8<br>
Codec ID : S_TEXT/UTF8<br>
Codec ID/Info : UTF-8 Plain Text<br>
Duration : 1 h 32 min<br>
Bit rate : 43 b/s<br>
Frame rate : 0.228 FPS<br>
Count of elements : 1273<br>
Stream size : 29.7 KiB (0%)<br>
Title : SDH<br>
Language : English<br>
Default : No<br>
Forced : No</div>
</div><br>
<b>Screenshots</b><br>
<img src="https://i.imgur.com/OKJc9Dj.png" class="bbCodeImage LbImage" alt="[​IMG]" data-url="https://i.imgur.com/OKJc9Dj.png" style=""><br>
<br>
<b>Download</b><br>
<div class="bbCodeBlock bbCodeVfcHH HiddenContent">
<div class="attribution type">Hidden Content:</div>
<blockquote>You must reply before you can see the hidden data contained here.</blockquote>
</div></div>
<div class="messageTextEndMarker">&nbsp;</div>
</blockquote>
</article>]]></description>
                <author><![CDATA[Samuel]]></author>
                </item>

                
                <item>
                <title><![CDATA[【Requests】[REQ VID] - Older Disney Movies in 4k?]]></title>
                <link><![CDATA[https://sharemania.us/threads/older-disney-movies-in-4k.220082/]]></link>
                <description><![CDATA[<article>
<blockquote class="messageText SelectQuoteContainer ugc baseHtml">
Has anybody done any home-upscales of older cartoon (not live action lol) disney movies like snow white, lilo &amp; stitch, sleeping beauty, etc? And are the official disney 4k 'remasters' ripped online anywhere (like cinderella, aladdin, the little mermaid...)
<div class="messageTextEndMarker">&nbsp;</div>
</blockquote>
</article>]]></description>
                <author><![CDATA[angellaglo1]]></author>
                </item>

                
                <item>
                <title><![CDATA[【Singles (lossy)】MP3 - Taylor Swift - Enchanted (Taylor's Version)]]></title>
                <link><![CDATA[https://sharemania.us/threads/taylor-swift-enchanted-taylors-version.220075/]]></link>
                <description><![CDATA[<article>
<blockquote class="messageText SelectQuoteContainer ugc baseHtml">
So today again i tried to created enchanted in taylor's version voice with AI...it's a bit a choppy since i didn't have a clean lead vocal but i thought to still share with yall...<br>
Enjoy this <img src="styles/default/xenforo/smilies/happy-48.png" class="mceSmilie" alt=":happy:" title="Happy    :happy:">:<br>
<img src="https://i.ibb.co/G9rD65x/tumblr-333ed3fc00aae0577b71586e7df7de86-909fff51-1280.jpg" class="bbCodeImage LbImage" alt="[​IMG]" data-url="https://i.ibb.co/G9rD65x/tumblr-333ed3fc00aae0577b71586e7df7de86-909fff51-1280.jpg" style=""><br>
<br>
<div class="bbCodeBlock bbCodeVfcHH HiddenContent">
<div class="attribution type">Hidden Content:</div>
<blockquote>You must reply before you can see the hidden data contained here.</blockquote>
</div>
<div class="messageTextEndMarker">&nbsp;</div>
</blockquote>
</article>]]></description>
                <author><![CDATA[MusicStation]]></author>
                </item>

                
                <item>
                <title><![CDATA[【SD】Bryan Adams - (Everything I Do) I Do It For You LPCM-Telegenics-Tknobi]]></title>
                <link><![CDATA[https://sharemania.us/threads/bryan-adams-everything-i-do-i-do-it-for-you-lpcm-telegenics-tknobi.220072/]]></link>
                <description><![CDATA[<article>
<blockquote class="messageText SelectQuoteContainer ugc baseHtml">
<div style="text-align: center"><img src="https://i.postimg.cc/BnzrH3n0/Bryan-Adams-Everything-I-Do-I-Do-It-For-You-LPCM-Telegenics-vob.jpg" class="bbCodeImage LbImage" alt="[​IMG]" data-url="https://i.postimg.cc/BnzrH3n0/Bryan-Adams-Everything-I-Do-I-Do-It-For-You-LPCM-Telegenics-vob.jpg" style=""><br>
<br>
<div class="bbCodeBlock bbCodeVfcHH HiddenContent">
<div class="attribution type">Hidden Content:</div>
<blockquote>You must reply before you can see the hidden data contained here.</blockquote>
</div></div>
<div class="messageTextEndMarker">&nbsp;</div>
</blockquote>
</article>]]></description>
                <author><![CDATA[tknobi]]></author>
                </item>

                
                <item>
                <title><![CDATA[【HD Live Performances】WEB-RiP - BZRP Live Tour Buenos Aires 2023 DTVGO.WEB-DL.1080p-Tknobi]]></title>
                <link><![CDATA[https://sharemania.us/threads/bzrp-live-tour-buenos-aires-2023-dtvgo-web-dl-1080p-tknobi.220071/]]></link>
                <description><![CDATA[<article>
<blockquote class="messageText SelectQuoteContainer ugc baseHtml">
<div style="text-align: center"><img src="https://i.postimg.cc/bY1Brbnp/BZRP-Live-Tour-Buenos-Aires-2023-DTVGO-WEB-DL-1080p-Tknobi-mkv.jpg" class="bbCodeImage LbImage" alt="[​IMG]" data-url="https://i.postimg.cc/bY1Brbnp/BZRP-Live-Tour-Buenos-Aires-2023-DTVGO-WEB-DL-1080p-Tknobi-mkv.jpg" style=""> <br>
<br>
<div class="ToggleTriggerAnchor bbCodeSpoilerContainer">
<button type="button" class="button bbCodeSpoilerButton ToggleTrigger Tooltip JsOnly" data-target="> .SpoilerTarget"><span>Spoiler: <span class="SpoilerTitle">MediaInfo</span></span></button>
<div class="SpoilerTarget bbCodeSpoilerText">Format : Matroska<br>
Format version : Version 4<br>
File size : 4.58 GiB<br>
Duration : 1 h 42 min<br>
Overall bit rate mode : Constant<br>
Overall bit rate : 6 385 kb/s<br>
Encoded date : UTC 2023-04-26 00:21:42<br>
Writing application : mkvmerge v34.0.0 ('Sight and Seen') 64-bit<br>
Writing library : libebml v1.3.7 + libmatroska v1.5.0<br>
Video<br>
ID : 1<br>
Format : AVC<br>
Format/Info : Advanced Video Codec<br>
Format profile : High@L4<br>
Format settings : 1 Ref Frames<br>
Format settings, CABAC : No<br>
Format settings, Reference frames : 1 frame<br>
Format settings, GOP : M=1, N=30<br>
Codec ID : V_MPEG4/ISO/AVC<br>
Duration : 1 h 42 min<br>
Bit rate mode : Constant<br>
Bit rate : 6 000 kb/s<br>
Width : 1 920 pixels<br>
Height : 1 080 pixels<br>
Display aspect ratio : 16:9<br>
Frame rate mode : Constant<br>
Frame rate : 29.970 (30000/1001) FPS<br>
Color space : YUV<br>
Chroma subsampling : 4:2:0<br>
Bit depth : 8 bits<br>
Scan type : Progressive<br>
Bits/(Pixel*Frame) : 0.097<br>
Stream size : 4.30 GiB (94%)<br>
Title : AVOHD<br>
Language : English<br>
Default : Yes<br>
Forced : No<br>
Color range : Limited<br>
Color primaries : BT.601 NTSC<br>
Transfer characteristics : BT.601<br>
Matrix coefficients : BT.601<br>
Audio #1<br>
ID : 2<br>
Format : E-AC-3<br>
Format/Info : Enhanced AC-3<br>
Commercial name : Dolby Digital Plus<br>
Codec ID : A_EAC3<br>
Duration : 1 h 42 min<br>
Bit rate mode : Constant<br>
Bit rate : 192 kb/s<br>
Channel(s) : 2 channels<br>
Channel layout : L R<br>
Sampling rate : 48.0 kHz<br>
Frame rate : 31.250 FPS (1536 SPF)<br>
Compression mode : Lossy<br>
Stream size : 141 MiB (3%)<br>
Language : Spanish<br>
Service kind : Complete Main<br>
Default : Yes<br>
Forced : Yes<br>
Audio #2<br>
ID : 3<br>
Format : AC-3<br>
Format/Info : Audio Coding 3<br>
Commercial name : Dolby Digital<br>
Codec ID : A_AC3<br>
Duration : 1 h 42 min<br>
Bit rate mode : Constant<br>
Bit rate : 192 kb/s<br>
Channel(s) : 2 channels<br>
Channel layout : L R<br>
Sampling rate : 48.0 kHz<br>
Frame rate : 31.250 FPS (1536 SPF)<br>
Compression mode : Lossy<br>
Stream size : 141 MiB (3%)<br>
Language : Spanish<br>
Service kind : Complete Main<br>
Default : No<br>
Forced : No</div>
</div><br>
<br>
<div class="bbCodeBlock bbCodeVfcHH HiddenContent">
<div class="attribution type">Hidden Content:</div>
<blockquote>You must reply before you can see the hidden data contained here.</blockquote>
</div></div>
<div class="messageTextEndMarker">&nbsp;</div>
</blockquote>
</article>]]></description>
                <author><![CDATA[tknobi]]></author>
                </item>

                
                <item>
                <title><![CDATA[【Requests】[REQ AUD] - CL Spicy (Remix) 96/24 Qobuz]]></title>
                <link><![CDATA[https://sharemania.us/threads/cl-spicy-remix-96-24-qobuz.220070/]]></link>
                <description><![CDATA[<article>
<blockquote class="messageText SelectQuoteContainer ugc baseHtml">
Hi does anybody have this Hi Res Release? <a href="https://www.qobuz.com/us-en/album/spicy-cl/wa690c92jagaa" target="_blank" class="externalLink" rel="nofollow">https://www.qobuz.com/us-en/album/spicy-cl/wa690c92jagaa</a><br>
I would be Greatful Thanks!
<div class="messageTextEndMarker">&nbsp;</div>
</blockquote>
</article>]]></description>
                <author><![CDATA[Tiger0970]]></author>
                </item>

                
                <item>
                <title><![CDATA[【Albums (lossy)】iTunes Plus - Corbin Bleu - Corbin Bleu [Album MP3]]]></title>
                <link><![CDATA[https://sharemania.us/threads/corbin-bleu-corbin-bleu-album-mp3.220092/]]></link>
                <description><![CDATA[<article>
<blockquote class="messageText SelectQuoteContainer ugc baseHtml">
<img src="https://64.media.tumblr.com/e66dbadbd5e6c02fdccddfa34eb46950/5547d719c0a9d312-df/s640x960/5383525b60809a053cdc8db1036acfb75f828ae6.jpg" class="bbCodeImage LbImage" alt="[​IMG]" data-url="https://64.media.tumblr.com/e66dbadbd5e6c02fdccddfa34eb46950/5547d719c0a9d312-df/s640x960/5383525b60809a053cdc8db1036acfb75f828ae6.jpg" style=""> <br>
<img src="https://64.media.tumblr.com/98b29dcb427efd59d9510f3c36981f59/5547d719c0a9d312-f0/s640x960/ebb53ab211a0f8b2bb536478a1a1d93e7f2d1d0d.jpg" class="bbCodeImage LbImage" alt="[​IMG]" data-url="https://64.media.tumblr.com/98b29dcb427efd59d9510f3c36981f59/5547d719c0a9d312-f0/s640x960/ebb53ab211a0f8b2bb536478a1a1d93e7f2d1d0d.jpg" style=""> <br>
<div class="bbCodeBlock bbCodeVfcHH HiddenContent">
<div class="attribution type">Hidden Content:</div>
<blockquote>You must either reply or click 'Like' to see the hidden information contained here.</blockquote>
</div>
<div class="messageTextEndMarker">&nbsp;</div>
</blockquote>
</article>]]></description>
                <author><![CDATA[1505donisbruno]]></author>
                </item>

                
                <item>
                <title><![CDATA[【Requests】[REQ AUD] - Kelis album digital booklets]]></title>
                <link><![CDATA[https://sharemania.us/threads/kelis-album-digital-booklets.220091/]]></link>
                <description><![CDATA[<article>
<blockquote class="messageText SelectQuoteContainer ugc baseHtml">
Hey guys,<br>
<br>
I know this isn't an audio request, but I wasn't sure where to open this request.<br>
<br>
If any of you have digital booklets from Kelis, it would be great to share them with the rest of us <img src="styles/default/xenforo/smilies/exciting-48.png" class="mceSmilie" alt=":D" title="Big Grin    :D"><br>
<br>
<br>
Thanks <img src="styles/default/xenforo/smilies/super_man-48.png" class="mceSmilie" alt=":super:" title="Super Man    :super:">
<div class="messageTextEndMarker">&nbsp;</div>
</blockquote>
</article>]]></description>
                <author><![CDATA[Djodjara]]></author>
                </item>

                
                <item>
                <title><![CDATA[【Albums (lossless)】PACK - Xdinary Heroes (엑스디너리 히어로즈) - Deadlock (2023.04.26) + Overload (2022.11.11) [FLAC AMZNJP 16 bits/44.1 kHz]]]></title>
                <link><![CDATA[https://sharemania.us/threads/xdinary-heroes-%EC%97%91%EC%8A%A4%EB%94%94%EB%84%88%EB%A6%AC-%ED%9E%88%EC%96%B4%EB%A1%9C%EC%A6%88-deadlock-2023-04-26-overload-2022-11-11-flac-amznjp-16-bits-44-1-khz.220086/]]></link>
                <description><![CDATA[<article>
<blockquote class="messageText SelectQuoteContainer ugc baseHtml">
<div style="text-align: center"><br>
<br>
<a href="https://sharemania.us/threads/some-kpop-albums.220080/#post-4491905" class="internalLink">https://sharemania.us/threads/some-kpop-albums.220080/#post-4491905</a><br>
<br>
<img src="https://i.ibb.co/BPHjrGd/20562236.jpg" class="bbCodeImage LbImage" alt="[​IMG]" data-url="https://i.ibb.co/BPHjrGd/20562236.jpg" style=""><br>
<img src="https://i.ibb.co/wJpTrpd/20526483.jpg" class="bbCodeImage LbImage" alt="[​IMG]" data-url="https://i.ibb.co/wJpTrpd/20526483.jpg" style=""><br>
<div class="bbCodeBlock bbCodeVfcHH HiddenContent">
<div class="attribution type">Hidden Content:</div>
<blockquote>You must either reply or click 'Like' to see the hidden information contained here.</blockquote>
</div></div>
<div class="messageTextEndMarker">&nbsp;</div>
</blockquote>
</article>]]></description>
                <author><![CDATA[DETOXIC]]></author>
                </item>

                
                <item>
                <title><![CDATA[【Cinema Center】MOVIE - Scooby-Doo.in.Wheres.My.Mummy.2005.1080p.HULU.WEB-DL.AAC2.0.H.264-Samuel]]></title>
                <link><![CDATA[https://sharemania.us/threads/scooby-doo-in-wheres-my-mummy-2005-1080p-hulu-web-dl-aac2-0-h-264-samuel.220090/]]></link>
                <description><![CDATA[<article>
<blockquote class="messageText SelectQuoteContainer ugc baseHtml">
<div style="text-align: center"><b><span style="font-size: 26px">Scooby-Doo in Where's My Mummy?</span></b><br>
<img src="https://i.imgur.com/QXhlI2b.jpg" class="bbCodeImage LbImage" alt="[​IMG]" data-url="https://i.imgur.com/QXhlI2b.jpg" style=""><br>
<b><a href="https://i.imgur.com/235OkMR.jpg" target="_blank" class="externalLink" rel="nofollow">Alternate Artwork</a></b> | | <b><a href="https://i.imgur.com/wQ8doNZ.jpg" target="_blank" class="externalLink" rel="nofollow">Banner Artwork</a></b> | <b><a href="https://i.imgur.com/WLFn0pl.jpg" target="_blank" class="externalLink" rel="nofollow">Screenshot</a></b><br>
<br>
<b>Starring:</b> Frank Welker, Casey Kasem, Mindy Cohn • <b>Director:</b> Joe Sichta<br>
<br>
<div class="bbCodeBlock bbCodeQuote">
<aside>
<blockquote class="quoteContainer"><div class="quote"><b><span style="font-size: 15px"><span style="font-family: 'Arial'">Description</span></span></b><br>
Scooby (Frank Welker) and the gang (Casey Kasem, Mindy Cohn) encounter trouble when they discover an ancient tomb in Egypt.</div><div class="quoteExpand">Click to expand...</div></blockquote>
</aside>
</div>
<div class="bbCodeBlock bbCodeQuote">
<aside>
<blockquote class="quoteContainer"><div class="quote"><b><span style="font-size: 15px"><span style="font-family: 'Arial'">More Information</span></span><br>
Starring:</b> Frank Welker, Casey Kasem, Mindy Cohn, Grey Griffin, Christine Baranski, Ajay Naidu, Ron Perlman, Jeremy Piven, Wynton Marsalis, Oded Fehr, Virginia Madsen<br>
<b>Director:</b> Joe Sichta<br>
<br>
G • Comedy, Kids, Mystery, Adventure, Animation • Movie (2005)</div><div class="quoteExpand">Click to expand...</div></blockquote>
</aside>
</div>
<div class="bbCodeBlock bbCodeQuote">
<aside>
<blockquote class="quoteContainer"><div class="quote"><b><span style="font-size: 15px"><span style="font-family: 'Arial'">Trailers</span></span></b><br>
<div data-s9e-mediaembed="googledrive" style="display:inline-block;width:100%;max-width:640px"><div style="overflow:hidden;position:relative;padding-bottom:75%"><iframe allowfullscreen="" scrolling="no" src="//drive.google.com/file/d/1VEJehFWD95HHaEY8ya08nS15PMA6TN2D/preview" style="border:0;height:100%;left:0;position:absolute;width:100%"></iframe></div></div></div><div class="quoteExpand quoteCut">Click to expand...</div></blockquote>
</aside>
</div>
<div class="bbCodeBlock bbCodeQuote">
<aside>
<blockquote class="quoteContainer"><div class="quote"><b><span style="font-size: 15px">Source</span></b><br>
<img src="https://i.imgur.com/4uiLEFv.png" class="bbCodeImage LbImage" alt="[​IMG]" data-url="https://i.imgur.com/4uiLEFv.png" style=""></div><div class="quoteExpand">Click to expand...</div></blockquote>
</aside>
</div>
<div class="bbCodeBlock bbCodeQuote">
<aside>
<blockquote class="quoteContainer"><div class="quote"><b><span style="font-size: 15px">Release Name</span></b><br>
Scooby-Doo.in.Wheres.My.Mummy.2005.1080p.HULU.WEB-DL.AAC2.0.H.264-Samuel</div><div class="quoteExpand">Click to expand...</div></blockquote>
</aside>
</div>
<div class="ToggleTriggerAnchor bbCodeSpoilerContainer">
<button type="button" class="button bbCodeSpoilerButton ToggleTrigger Tooltip JsOnly" data-target="> .SpoilerTarget"><span>Spoiler: <span class="SpoilerTitle">Media Information</span></span></button>
<div class="SpoilerTarget bbCodeSpoilerText">General<br>
Complete name : Scooby-Doo.in.Wheres.My.Mummy.2005.1080p.HULU.WEB-DL.AAC2.0.H.264-Samuel.mkv<br>
Format : Matroska<br>
Format version : Version 4<br>
File size : 2.71 GiB<br>
Duration  : 1 h 8 min<br>
Overall bit rate : 5 695 kb/s<br>
Frame rate : 29.970 FPS<br>
Encoded date : 2022-10-16 07:32:52 UTC<br>
Writing application : mkvmerge v71.1.0 ('Fortitude') 64-bit<br>
Writing library : libebml v1.4.4 + libmatroska v1.7.1<br>
<br>
Video<br>
ID : 1<br>
Format : AVC<br>
Format/Info : Advanced Video Codec<br>
Format profile : High@L4<br>
Format settings : CABAC / 4 Ref Frames<br>
Format settings, CABAC : Yes<br>
Format settings, Reference frames : 4 frames<br>
Codec ID : V_MPEG4/ISO/AVC<br>
Duration : 1 h 8 min<br>
Bit rate : 5 629 kb/s<br>
Width : 1 920 pixels<br>
Height : 1 080 pixels<br>
Display aspect ratio : 16:9<br>
Frame rate mode : Constant<br>
Frame rate : 29.970 (30000/1001) FPS<br>
Color space : YUV<br>
Chroma subsampling : 4:2:0<br>
Bit depth : 8 bits<br>
Scan type : Progressive<br>
Bits/(Pixel*Frame) : 0.091<br>
Stream size : 2.68 GiB (99%)<br>
Default : Yes<br>
Forced : No<br>
<br>
Audio<br>
ID : 2<br>
Format : AAC LC SBR<br>
Format/Info : Advanced Audio Codec Low Complexity with Spectral Band Replication<br>
Commercial name : HE-AAC<br>
Format settings : Explicit<br>
Codec ID : A_AAC-2<br>
Duration : 1 h 8 min<br>
Bit rate : 64.0 kb/s<br>
Channel(s) : 2 channels<br>
Channel layout : L R<br>
Sampling rate : 48.0 kHz<br>
Frame rate : 23.438 FPS (2048 SPF)<br>
Compression mode : Lossy<br>
Stream size : 31.2 MiB (1%)<br>
Language : English<br>
Default : Yes<br>
Forced : No<br>
<br>
Text<br>
ID : 3<br>
Format : UTF-8<br>
Codec ID : S_TEXT/UTF8<br>
Codec ID/Info : UTF-8 Plain Text<br>
Duration : 1 h 7 min<br>
Bit rate : 62 b/s<br>
Frame rate : 0.293 FPS<br>
Count of elements : 1191<br>
Stream size : 31.2 KiB (0%)<br>
Language : English<br>
Default : No<br>
Forced : No</div>
</div><br>
<b>Screenshots</b><br>
<img src="https://i.imgur.com/fAWZJVC.png" class="bbCodeImage LbImage" alt="[​IMG]" data-url="https://i.imgur.com/fAWZJVC.png" style=""><br>
<br>
<b>Download</b><br>
<div class="bbCodeBlock bbCodeVfcHH HiddenContent">
<div class="attribution type">Hidden Content:</div>
<blockquote>You must reply before you can see the hidden data contained here.</blockquote>
</div></div>
<div class="messageTextEndMarker">&nbsp;</div>
</blockquote>
</article>]]></description>
                <author><![CDATA[Samuel]]></author>
                </item>

                
                <item>
                <title><![CDATA[【Requests】[REQ AUD] - some kpop albums]]></title>
                <link><![CDATA[https://sharemania.us/threads/some-kpop-albums.220080/]]></link>
                <description><![CDATA[<article>
<blockquote class="messageText SelectQuoteContainer ugc baseHtml">
hello again! if you don't mind helping me out again, could someone please upload these albums??<br>
<br>
<b>prelude of love ch. 2: growing pains - epex </b>(<a href="https://www.qobuz.com/us-en/album/epex-5th-ep-album-prelude-of-love-chapter-2-growing-pains-epex/g3o3yw8a6sthb" target="_blank" class="externalLink" rel="nofollow">https://www.qobuz.com/us-en/album/e...ve-chapter-2-growing-pains-epex/g3o3yw8a6sthb</a>)<br>
<b>oo-li - woodz </b>(<a href="https://www.qobuz.com/us-en/album/oo-li-woodz/d6docj6kwyjec" target="_blank" class="externalLink" rel="nofollow">https://www.qobuz.com/us-en/album/oo-li-woodz/d6docj6kwyjec</a>)<br>
<b>overload - xdinary heroes </b>(<a href="https://www.qobuz.com/us-en/album/overload-xdinary-heroes/hrh9uouh8snnc" target="_blank" class="externalLink" rel="nofollow">https://www.qobuz.com/us-en/album/overload-xdinary-heroes/hrh9uouh8snnc</a>)<br>
<b>deadlock - xdinary heroes </b>(<a href="https://www.qobuz.com/us-en/album/deadlock-xdinary-heroes/rx0k3diy6567a" target="_blank" class="externalLink" rel="nofollow">https://www.qobuz.com/us-en/album/deadlock-xdinary-heroes/rx0k3diy6567a</a>)<br>
<b>salty - n.ssign </b>(<a href="https://www.qobuz.com/us-en/album/nssign-pre-debut-mini-album-salty-nssign/agpsxeybtthra" target="_blank" class="externalLink" rel="nofollow">https://www.qobuz.com/us-en/album/nssign-pre-debut-mini-album-salty-nssign/agpsxeybtthra</a>)<br>
<br>
thank you so much in advanced <img src="styles/default/xenforo/clear.png" class="mceSmilieSprite mceSmilie35" alt=":blush:" title="Blush    :blush:">
<div class="messageTextEndMarker">&nbsp;</div>
</blockquote>
</article>]]></description>
                <author><![CDATA[geiraisin]]></author>
                </item>

                
                <item>
                <title><![CDATA[【Cinema Center】MOVIE - The.Texas.Chain.Saw.Massacre.1974.1080p.ROKU.WEB-DL.DD5.1.H.264-Samuel]]></title>
                <link><![CDATA[https://sharemania.us/threads/the-texas-chain-saw-massacre-1974-1080p-roku-web-dl-dd5-1-h-264-samuel.220079/]]></link>
                <description><![CDATA[<article>
<blockquote class="messageText SelectQuoteContainer ugc baseHtml">
<div style="text-align: center"><b><span style="font-size: 26px">The Texas Chain Saw Massacre</span></b><br>
<img src="https://i.imgur.com/ennr9Td.jpg" class="bbCodeImage LbImage" alt="[​IMG]" data-url="https://i.imgur.com/ennr9Td.jpg" style=""><br>
<b><a href="https://i.imgur.com/X4qIDzg.jpg" target="_blank" class="externalLink" rel="nofollow">Alternate Artwork 1</a></b> | <b><a href="https://i.imgur.com/4HMByhB.jpg" target="_blank" class="externalLink" rel="nofollow">Alternate Artwork 2</a></b> | <b><a href="https://i.imgur.com/lP210NH.jpg" target="_blank" class="externalLink" rel="nofollow">Alternate Artwork 3</a></b> | <b><a href="https://i.imgur.com/A0WwJIp.jpg" target="_blank" class="externalLink" rel="nofollow">Poster 1</a></b> | <b><a href="https://i.imgur.com/CrHFfEV.jpg" target="_blank" class="externalLink" rel="nofollow">Poster 2</a></b> | <b><a href="https://i.imgur.com/4MzO5ij.jpg" target="_blank" class="externalLink" rel="nofollow">Screenshot</a></b><br>
<br>
1974 | UR | 1h 23m | Suspense | Thrillers | Horror<br>
Marilyn Burns, Gunnar Hansen, Allen Danziger<br>
<b>Directed By:</b> Tobe Hooper<br>
<br>
<div class="bbCodeBlock bbCodeQuote">
<aside>
<blockquote class="quoteContainer"><div class="quote"><b><span style="font-size: 15px">Description</span></b><br>
Young adults (Marilyn Burns, Allen Danziger) encounter a houseful of demented butchers who chase them with chain saws and other deadly tools.</div><div class="quoteExpand">Click to expand...</div></blockquote>
</aside>
</div>
<div class="bbCodeBlock bbCodeQuote">
<aside>
<blockquote class="quoteContainer"><div class="quote"><b><span style="font-size: 15px">Trailers</span></b><br>
<div data-s9e-mediaembed="googledrive" style="display:inline-block;width:100%;max-width:640px"><div style="overflow:hidden;position:relative;padding-bottom:75%"><iframe allowfullscreen="" scrolling="no" src="//drive.google.com/file/d/1Nr-kcRaYe2xjHLB3VVbPEzWiKCt3W-ie/preview" style="border:0;height:100%;left:0;position:absolute;width:100%"></iframe></div></div></div><div class="quoteExpand quoteCut">Click to expand...</div></blockquote>
</aside>
</div>
<div class="bbCodeBlock bbCodeQuote">
<aside>
<blockquote class="quoteContainer"><div class="quote"><b><span style="font-size: 15px">More Information</span><br>
Cast:</b> Marilyn Burns, Gunnar Hansen, Allen Danziger, Paul A. Partain, William Vail, Teri McMinn, Edwin Neal, Jim Siedow, John Dugan, Perry Lorenz<br>
<b>Genres:</b> Suspense, Thrillers, Horror<br>
<b>Directors:</b> Tobe Hooper<br>
<br>
<b>Captions:</b> English [Closed caption]<br>
<b>Audio track:</b> English (Original), English (Original) (Dolby)</div><div class="quoteExpand">Click to expand...</div></blockquote>
</aside>
</div>
<div class="bbCodeBlock bbCodeQuote">
<aside>
<blockquote class="quoteContainer"><div class="quote"><span style="font-size: 15px"><b>Source</b></span><br>
<img src="https://i.imgur.com/sxdbEA9.png" class="bbCodeImage LbImage" alt="[​IMG]" data-url="https://i.imgur.com/sxdbEA9.png" style=""></div><div class="quoteExpand">Click to expand...</div></blockquote>
</aside>
</div>
<div class="bbCodeBlock bbCodeQuote">
<aside>
<blockquote class="quoteContainer"><div class="quote"><b><span style="font-size: 15px">Release Name</span></b><br>
The.Texas.Chain.Saw.Massacre.1974.1080p.ROKU.WEB-DL.DD5.1.H.264-Samuel</div><div class="quoteExpand">Click to expand...</div></blockquote>
</aside>
</div>
<div class="ToggleTriggerAnchor bbCodeSpoilerContainer">
<button type="button" class="button bbCodeSpoilerButton ToggleTrigger Tooltip JsOnly" data-target="> .SpoilerTarget"><span>Spoiler: <span class="SpoilerTitle">Media Information</span></span></button>
<div class="SpoilerTarget bbCodeSpoilerText">General<br>
Complete name : The.Texas.Chain.Saw.Massacre.1974.1080p.ROKU.WEB-DL.DD5.1.H.264-Samuel.mkv<br>
Format : Matroska<br>
Format version : Version 4<br>
File size : 3.30 GiB<br>
Duration : 1 h 23 min<br>
Overall bit rate mode : Variable<br>
Overall bit rate : 5 662 kb/s<br>
Frame rate : 23.976 FPS<br>
Encoded date : 2023-04-29 13:05:08 UTC<br>
Writing application : mkvmerge v75.0.0 ('Goliath') 64-bit<br>
Writing library : libebml v1.4.4 + libmatroska v1.7.1<br>
<br>
Video<br>
ID : 1<br>
Format : AVC<br>
Format/Info : Advanced Video Codec<br>
Format profile : High@L4<br>
Format settings : CABAC / 3 Ref Frames<br>
Format settings, CABAC : Yes<br>
Format settings, Reference frames : 3 frames<br>
Codec ID : V_MPEG4/ISO/AVC<br>
Duration : 1 h 23 min<br>
Bit rate mode : Variable<br>
Bit rate : 5 276 kb/s<br>
Maximum bit rate : 5 495 kb/s<br>
Width : 1 920 pixels<br>
Height : 1 080 pixels<br>
Display aspect ratio : 16:9<br>
Frame rate mode : Constant<br>
Frame rate : 23.976 (24000/1001) FPS<br>
Color space : YUV<br>
Chroma subsampling : 4:2:0<br>
Bit depth : 8 bits<br>
Scan type : Progressive<br>
Bits/(Pixel*Frame) : 0.106<br>
Stream size : 3.07 GiB (93%)<br>
Default : Yes<br>
Forced : No<br>
Color range : Limited<br>
Color primaries : BT.709<br>
Transfer characteristics : BT.709<br>
Matrix coefficients : BT.709<br>
<br>
Audio<br>
ID : 2<br>
Format : AC-3<br>
Format/Info : Audio Coding 3<br>
Commercial name : Dolby Digital<br>
Codec ID : A_AC3<br>
Duration : 1 h 23 min<br>
Bit rate mode : Constant<br>
Bit rate : 384 kb/s<br>
Channel(s) : 6 channels<br>
Channel layout : L R C LFE Ls Rs<br>
Sampling rate : 48.0 kHz<br>
Frame rate : 31.250 FPS (1536 SPF)<br>
Compression mode : Lossy<br>
Stream size : 229 MiB (7%)<br>
Language : enm<br>
Service kind : Complete Main<br>
Default : Yes<br>
Forced : No<br>
<br>
Text<br>
ID : 3<br>
Format : UTF-8<br>
Codec ID : S_TEXT/UTF8<br>
Codec ID/Info : UTF-8 Plain Text<br>
Duration : 1 h 20 min<br>
Bit rate : 43 b/s<br>
Frame rate : 0.202 FPS<br>
Count of elements  : 978<br>
Stream size : 25.4 KiB (0%)<br>
Title : SDH<br>
Language : English (US)<br>
Default : No<br>
Forced : No</div>
</div><br>
<b>Screenshots</b><br>
<img src="https://i.imgur.com/6UvzRYQ.png" class="bbCodeImage LbImage" alt="[​IMG]" data-url="https://i.imgur.com/6UvzRYQ.png" style=""><br>
<br>
<b>Download</b><br>
<div class="bbCodeBlock bbCodeVfcHH HiddenContent">
<div class="attribution type">Hidden Content:</div>
<blockquote>You must reply before you can see the hidden data contained here.</blockquote>
</div></div>
<div class="messageTextEndMarker">&nbsp;</div>
</blockquote>
</article>]]></description>
                <author><![CDATA[Samuel]]></author>
                </item>

                
                <item>
                <title><![CDATA[【Albums (lossless)】FLAC - EPEX (이펙스) - Prelude of Love Chapter 2. 'Growing Pains' (2023.04.18) [FLAC Genie 24 bits/96.0 kHz]]]></title>
                <link><![CDATA[https://sharemania.us/threads/epex-%EC%9D%B4%ED%8E%99%EC%8A%A4-prelude-of-love-chapter-2-growing-pains-2023-04-18-flac-genie-24-bits-96-0-khz.220084/]]></link>
                <description><![CDATA[<article>
<blockquote class="messageText SelectQuoteContainer ugc baseHtml">
<div style="text-align: center"><br>
<br>
<a href="https://sharemania.us/threads/some-kpop-albums.220080/#post-4491905" class="internalLink">https://sharemania.us/threads/some-kpop-albums.220080/#post-4491905</a><br>
<br>
<img src="https://i.ibb.co/ScVpBZF/4085866.jpg" class="bbCodeImage LbImage" alt="[​IMG]" data-url="https://i.ibb.co/ScVpBZF/4085866.jpg" style=""><br>
<div class="bbCodeBlock bbCodeVfcHH HiddenContent">
<div class="attribution type">Hidden Content:</div>
<blockquote>You must either reply or click 'Like' to see the hidden information contained here.</blockquote>
</div></div>
<div class="messageTextEndMarker">&nbsp;</div>
</blockquote>
</article>]]></description>
                <author><![CDATA[DETOXIC]]></author>
                </item>

                
                <item>
                <title><![CDATA[【Unreleased/Unofficial (lossless)】FLAC - Stray Kids – 5-STAR | Pre-Order [WEB FLAC 24-Bit/96.0 kHz + Genie Music Hi-Res Audio]]]></title>
                <link><![CDATA[https://sharemania.us/threads/stray-kids-%E2%80%93-5-star-pre-order-web-flac-24-bit-96-0-khz-genie-music-hi-res-audio.220074/]]></link>
                <description><![CDATA[<article>
<blockquote class="messageText SelectQuoteContainer ugc baseHtml">
<b><img src="https://i.imgur.com/12zqmer.jpg" class="bbCodeImage LbImage" alt="[​IMG]" data-url="https://i.imgur.com/12zqmer.jpg" style=""><br>
<img src="https://i.imgur.com/JnvMsxw.png" class="bbCodeImage LbImage" alt="[​IMG]" data-url="https://i.imgur.com/JnvMsxw.png" style=""></b><br>
<span style="font-family: 'Book Antiqua'"><span style="font-size: 15px"><b>Artist</b>: Stray Kids (스트레이 키즈)<br>
<b>Album</b>: ★★★★★ (5-STAR)<br>
<b>Release</b>: 2023/05/01<br>
<b>Type</b>: Studio Album<br>
<b>Format</b>: Free Lossless Audio Codec<br>
<b>Quality</b>: High Resolution, Lossless Audio - Studio Quality<br>
<b>Sample Rate</b>: 24-Bit/96.000 kHz - Stereo<br>
<b>Source</b>: Ripped from <span style="color: #0059b3"><a href="https://www.genie.co.kr/" target="_blank" class="externalLink" rel="nofollow">Genie Music</a></span><br>
<br>
<b>TRACK LIST</b><br>
1. 위인전 </span><span style="font-size: 10px">*<b><span style="color: #ff0000">Unavailable</span></b>*</span><br>
<span style="font-size: 15px">2. 특 </span><span style="font-size: 10px">*<b><span style="color: #ff0000">Unavailable</span></b>*</span><br>
<span style="font-size: 15px">3. ITEM </span><span style="font-size: 10px">*<b><span style="color: #ff0000">Unavailable</span></b>*</span><br>
<span style="font-size: 15px">4. Super Bowl </span><span style="font-size: 10px">*<b><span style="color: #ff0000">Unavailable</span></b>*</span><br>
<span style="font-size: 15px">5. TOPLINE (Feat. Tiger JK) </span><span style="font-size: 10px">*<b><span style="color: #ff0000">Unavailable</span></b>*</span><br>
<span style="font-size: 15px">6. DLC </span><span style="font-size: 10px">*<b><span style="color: #ff0000">Unavailable</span></b>*</span><br>
<span style="font-size: 15px">7. 죽어보다 </span><span style="font-size: 10px">*<b><span style="color: #ff0000">Unavailable</span></b>*</span><br>
<span style="font-size: 15px">8. 충돌 </span><span style="font-size: 10px">*<b><span style="color: #ff0000">Unavailable</span></b>*</span><br>
<span style="font-size: 15px">9. FNF </span><span style="font-size: 10px">*<b><span style="color: #ff0000">Unavailable</span></b>*</span><br>
<span style="font-size: 15px">10. Youtiful </span><span style="font-size: 10px">*<b><span style="color: #ff0000">Unavailable</span></b>*</span><br>
<span style="font-size: 15px">11. THE SOUND (Korean Ver.) </span><span style="font-size: 10px">*<b><span style="color: #ff0000">Unavailable</span></b>*</span><br>
<span style="font-size: 15px">12. Time Out<br>
<br>
<b>MORE INFORMATION</b><br>
1 Disc - 1 Track.<br>
Artwork - JPEG 4000x4000.<br>
SoX Spectrogram - <a href="https://i.imgur.com/wtDwzGY.png" target="_blank" class="externalLink" rel="nofollow">Preview</a><a href="https://i.imgur.com/AUopLok.png" target="_blank" class="externalLink" rel="nofollow">.</a><br>
Lossless Audio Checker - <a href="https://i.imgur.com/ZIomQpV.png" target="_blank" class="externalLink" rel="nofollow">Preview</a>.<br>
<br>
<b>DOWNLOAD</b><br>
<div class="bbCodeBlock bbCodeVfcHH HiddenContent">
<div class="attribution type">Hidden Content:</div>
<blockquote>You must reply before you can see the hidden data contained here.</blockquote>
</div></span></span>
<div class="messageTextEndMarker">&nbsp;</div>
</blockquote>
</article>]]></description>
                <author><![CDATA[samymskzs]]></author>
                </item>

                
                <item>
                <title><![CDATA[【Cinema Center】MOVIE - Just.My.Luck.2006.1080p.HULU.WEB-DL.DDP5.1.H.264-Samuel]]></title>
                <link><![CDATA[https://sharemania.us/threads/just-my-luck-2006-1080p-hulu-web-dl-ddp5-1-h-264-samuel.220083/]]></link>
                <description><![CDATA[<article>
<blockquote class="messageText SelectQuoteContainer ugc baseHtml">
<div style="text-align: center"><b><span style="font-size: 26px">Just My Luck</span></b><br>
<img src="https://i.imgur.com/jvddstZ.jpg" class="bbCodeImage LbImage" alt="[​IMG]" data-url="https://i.imgur.com/jvddstZ.jpg" style=""><br>
<b><a href="https://i.imgur.com/qux7M49.jpg" target="_blank" class="externalLink" rel="nofollow">Alternate Artwork 1</a></b> | <b><a href="https://i.imgur.com/FDX628s.jpg" target="_blank" class="externalLink" rel="nofollow">Alternate Artwork 2</a></b> | <b><a href="https://i.imgur.com/wekUMkX.jpg" target="_blank" class="externalLink" rel="nofollow">Key Art</a></b><br>
<br>
<b>Starring:</b> Lindsay Lohan, Chris Pine, Samaire Armstrong • <b>Director:</b> Donald Petrie<br>
<br>
<div class="bbCodeBlock bbCodeQuote">
<aside>
<blockquote class="quoteContainer"><div class="quote"><b><span style="font-size: 15px"><span style="font-family: 'Arial'">Description</span></span></b><br>
A luck-blessed girl and a luck-deprived guy fall in love--and switch fortunes--in this romantic comedy with Lindsay Lohan.</div><div class="quoteExpand">Click to expand...</div></blockquote>
</aside>
</div>
<div class="bbCodeBlock bbCodeQuote">
<aside>
<blockquote class="quoteContainer"><div class="quote"><b><span style="font-size: 15px"><span style="font-family: 'Arial'">More Information</span></span><br>
Starring:</b> Lindsay Lohan, Chris Pine, Samaire Armstrong, Bree Turner, Faizon Love<br>
<b>Director:</b> Donald Petrie<br>
<br>
PG-13 • Comedy, Romance, Drama • Movie • 2006 • 5.1 • HD</div><div class="quoteExpand">Click to expand...</div></blockquote>
</aside>
</div>
<div class="bbCodeBlock bbCodeQuote">
<aside>
<blockquote class="quoteContainer"><div class="quote"><b><span style="font-size: 15px"><span style="font-family: 'Arial'">Trailers</span></span></b><br>
<div data-s9e-mediaembed="googledrive" style="display:inline-block;width:100%;max-width:640px"><div style="overflow:hidden;position:relative;padding-bottom:75%"><iframe allowfullscreen="" scrolling="no" src="//drive.google.com/file/d/1P0UydR1nanGQxlTpA5NCb8_xSnBZApNc/preview" style="border:0;height:100%;left:0;position:absolute;width:100%"></iframe></div></div></div><div class="quoteExpand quoteCut">Click to expand...</div></blockquote>
</aside>
</div>
<div class="bbCodeBlock bbCodeQuote">
<aside>
<blockquote class="quoteContainer"><div class="quote"><b><span style="font-size: 15px">Source</span></b><br>
<img src="https://i.imgur.com/4uiLEFv.png" class="bbCodeImage LbImage" alt="[​IMG]" data-url="https://i.imgur.com/4uiLEFv.png" style=""></div><div class="quoteExpand">Click to expand...</div></blockquote>
</aside>
</div>
<div class="bbCodeBlock bbCodeQuote">
<aside>
<blockquote class="quoteContainer"><div class="quote"><b><span style="font-size: 15px">Release Name</span></b><br>
Just.My.Luck.2006.1080p.HULU.WEB-DL.DDP5.1.H.264-Samuel</div><div class="quoteExpand">Click to expand...</div></blockquote>
</aside>
</div>
<div class="ToggleTriggerAnchor bbCodeSpoilerContainer">
<button type="button" class="button bbCodeSpoilerButton ToggleTrigger Tooltip JsOnly" data-target="> .SpoilerTarget"><span>Spoiler: <span class="SpoilerTitle">Media Information</span></span></button>
<div class="SpoilerTarget bbCodeSpoilerText">General<br>
Complete name : Just.My.Luck.2006.1080p.HULU.WEB-DL.DDP5.1.H.264-Samuel.mkv<br>
Format : Matroska<br>
Format version : Version 4<br>
File size : 4.33 GiB<br>
Duration : 1 h 42 min<br>
Overall bit rate : 6 043 kb/s<br>
Frame rate : 23.976 FPS<br>
Encoded date : 2023-04-30 06:18:01 UTC<br>
Writing application : mkvmerge v72.0.0 ('Minuano (Six-eight)') 64-bit<br>
Writing library : libebml v1.4.4 + libmatroska v1.7.1<br>
<br>
Video<br>
ID : 1<br>
Format : AVC<br>
Format/Info : Advanced Video Codec<br>
Format profile : High@L4<br>
Format settings : CABAC / 4 Ref Frames<br>
Format settings, CABAC : Yes<br>
Format settings, Reference frames : 4 frames<br>
Codec ID : V_MPEG4/ISO/AVC<br>
Duration : 1 h 42 min<br>
Bit rate : 5 785 kb/s<br>
Width : 1 920 pixels<br>
Height : 1 080 pixels<br>
Display aspect ratio : 16:9<br>
Frame rate mode : Constant<br>
Frame rate : 23.976 (24000/1001) FPS<br>
Color space : YUV<br>
Chroma subsampling : 4:2:0<br>
Bit depth : 8 bits<br>
Scan type : Progressive<br>
Bits/(Pixel*Frame) : 0.116<br>
Stream size : 4.14 GiB (96%)<br>
Default : Yes<br>
Forced : No<br>
<br>
Audio<br>
ID : 2<br>
Format : E-AC-3<br>
Format/Info : Enhanced AC-3<br>
Commercial name : Dolby Digital Plus<br>
Codec ID : A_EAC3<br>
Duration : 1 h 42 min<br>
Bit rate mode : Constant<br>
Bit rate : 256 kb/s<br>
Channel(s) : 6 channels<br>
Channel layout : L R C LFE Ls Rs<br>
Sampling rate : 48.0 kHz<br>
Frame rate : 31.250 FPS (1536 SPF)<br>
Compression mode : Lossy<br>
Stream size : 188 MiB (4%)<br>
Language : English<br>
Service kind : Complete Main<br>
Default : Yes<br>
Forced : No<br>
<br>
Text #1<br>
ID : 3<br>
Format : UTF-8<br>
Codec ID : S_TEXT/UTF8<br>
Codec ID/Info : UTF-8 Plain Text<br>
Duration : 1 h 41 min<br>
Bit rate : 91 b/s<br>
Frame rate : 0.299 FPS<br>
Count of elements : 1823<br>
Stream size : 68.3 KiB (0%)<br>
Title : SDH<br>
Language : English<br>
Default : No<br>
Forced : No<br>
<br>
Text #2<br>
ID : 4<br>
Format : UTF-8<br>
Codec ID : S_TEXT/UTF8<br>
Codec ID/Info : UTF-8 Plain Text<br>
Duration : 1 h 41 min<br>
Bit rate : 57 b/s<br>
Frame rate : 0.203 FPS<br>
Count of elements : 1233<br>
Stream size : 42.6 KiB (0%)<br>
Language : Spanish<br>
Default : No<br>
Forced : No<br>
<br>
Menu<br>
01:37:55.004 : en:Credits</div>
</div><br>
<b>Screenshots</b><br>
<img src="https://i.imgur.com/bp9OInq.png" class="bbCodeImage LbImage" alt="[​IMG]" data-url="https://i.imgur.com/bp9OInq.png" style=""><br>
<br>
<b>Download</b><br>
<div class="bbCodeBlock bbCodeVfcHH HiddenContent">
<div class="attribution type">Hidden Content:</div>
<blockquote>You must reply before you can see the hidden data contained here.</blockquote>
</div></div>
<div class="messageTextEndMarker">&nbsp;</div>
</blockquote>
</article>]]></description>
                <author><![CDATA[Samuel]]></author>
                </item>

                
                <item>
                <title><![CDATA[【Requests】[REQ AUD] - Original Pilipino Music Lossless (FLAC)]]></title>
                <link><![CDATA[https://sharemania.us/threads/original-pilipino-music-lossless-flac.220087/]]></link>
                <description><![CDATA[<article>
<blockquote class="messageText SelectQuoteContainer ugc baseHtml">
<a href="https://www.qobuz.com/ie-en/album/uhaw-tayong-lahat-dilaw/czshwrzpmrrjb" target="_blank" class="externalLink" rel="nofollow">https://www.qobuz.com/ie-en/album/uhaw-tayong-lahat-dilaw/czshwrzpmrrjb</a><br>
<br>
<a href="https://www.qobuz.com/ie-en/album/episode-zack-tabudlo/aoah003wbf5mb" target="_blank" class="externalLink" rel="nofollow">https://www.qobuz.com/ie-en/album/episode-zack-tabudlo/aoah003wbf5mb</a><br>
<br>
<a href="https://www.qobuz.com/ie-en/album/pano-zack-tabudlo/n33k4uo0e1ptc" target="_blank" class="externalLink" rel="nofollow">https://www.qobuz.com/ie-en/album/pano-zack-tabudlo/n33k4uo0e1ptc</a><br>
<br>
<a href="https://www.qobuz.com/ie-en/album/yakap-zack-tabudlo/nckmuf4qpcbba" target="_blank" class="externalLink" rel="nofollow">https://www.qobuz.com/ie-en/album/yakap-zack-tabudlo/nckmuf4qpcbba</a> <br>
<br>
<a href="https://www.qobuz.com/ie-en/album/musika-dionela/fclmhcexe3ykb" target="_blank" class="externalLink" rel="nofollow">https://www.qobuz.com/ie-en/album/musika-dionela/fclmhcexe3ykb</a>
<div class="messageTextEndMarker">&nbsp;</div>
</blockquote>
</article>]]></description>
                <author><![CDATA[jov_93]]></author>
                </item>

                
                <item>
                <title><![CDATA[【Requests】[REQ VID] - Beyoncé &amp; JAY Z - ON THE RUN II: THE FILM]]></title>
                <link><![CDATA[https://sharemania.us/threads/beyonc%C3%A9-jay-z-on-the-run-ii-the-film.220089/]]></link>
                <description><![CDATA[<article>
<blockquote class="messageText SelectQuoteContainer ugc baseHtml">
Can someone please download this in 1080p and upload on Google Drive?<br>
<br>
<div data-s9e-mediaembed="youtube" style="display:inline-block;width:100%;max-width:640px"><div style="overflow:hidden;position:relative;padding-bottom:56.25%"><iframe allowfullscreen="" scrolling="no" style="background:url(https://i.ytimg.com/vi/48MHDRS7h4k/hqdefault.jpg) 50% 50% / cover;border:0;height:100%;left:0;position:absolute;width:100%" src="https://www.youtube.com/embed/48MHDRS7h4k"></iframe></div></div>
<div class="messageTextEndMarker">&nbsp;</div>
</blockquote>
</article>]]></description>
                <author><![CDATA[nociamfenty]]></author>
                </item>

                
                <item>
                <title><![CDATA[【Albums (lossless)】FLAC - WOODZ (우즈) - OO-LI (2023.04.26) [FLAC Genie 24 bits/48 kHz]]]></title>
                <link><![CDATA[https://sharemania.us/threads/woodz-%EC%9A%B0%EC%A6%88-oo-li-2023-04-26-flac-genie-24-bits-48-khz.220088/]]></link>
                <description><![CDATA[<article>
<blockquote class="messageText SelectQuoteContainer ugc baseHtml">
<div style="text-align: center"><br>
<br>
<a href="https://sharemania.us/threads/some-kpop-albums.220080/#post-4491905" class="internalLink">https://sharemania.us/threads/some-kpop-albums.220080/#post-4491905</a><br>
<br>
<img src="https://i.ibb.co/zPGp4VD/4083984.jpg" class="bbCodeImage LbImage" alt="[​IMG]" data-url="https://i.ibb.co/zPGp4VD/4083984.jpg" style=""><br>
<div class="bbCodeBlock bbCodeVfcHH HiddenContent">
<div class="attribution type">Hidden Content:</div>
<blockquote>You must either reply or click 'Like' to see the hidden information contained here.</blockquote>
</div></div>
<div class="messageTextEndMarker">&nbsp;</div>
</blockquote>
</article>]]></description>
                <author><![CDATA[DETOXIC]]></author>
                </item>

                
                <item>
                <title><![CDATA[【Requests】[REQ AUD] - Four José Gonzáles Albums + 3 Singles [Hi-Res Qobuz]]]></title>
                <link><![CDATA[https://sharemania.us/threads/four-jos%C3%A9-gonz%C3%A1les-albums-3-singles-hi-res-qobuz.220077/]]></link>
                <description><![CDATA[<article>
<blockquote class="messageText SelectQuoteContainer ugc baseHtml">
Hi guys, I'm after four Hi-Res José Gonzáles albums from Qobuz and an additional three singles. Thankyou!<br>
<br>
Hi-Res:<br>
José Gonzáles - Vestiges &amp; Claws (24bit/96KHz): <a href="https://www.qobuz.com/gb-en/album/vestiges-claws-jose-gonzalez/5060100744032" target="_blank" class="externalLink" rel="nofollow">https://www.qobuz.com/gb-en/album/vestiges-claws-jose-gonzalez/5060100744032</a><br>
<br>
José Gonzáles - Local Valley (24bit/96KHz): <a href="https://www.qobuz.com/gb-en/album/local-valley-jose-gonzalez/azerr5twkt2yc" target="_blank" class="externalLink" rel="nofollow">https://www.qobuz.com/gb-en/album/local-valley-jose-gonzalez/azerr5twkt2yc</a><br>
<br>
José Gonzáles - Local Valley (Deluxe Edition) (24bit/44.1KHz): <a href="https://www.qobuz.com/gb-en/album/local-valley-deluxe-jose-gonzalez/qjvpawpvt6gab" target="_blank" class="externalLink" rel="nofollow">https://www.qobuz.com/gb-en/album/local-valley-deluxe-jose-gonzalez/qjvpawpvt6gab</a><br>
<br>
The Secret Life of Walter Mitty OST (24bit/44.1KHz): <a href="https://www.qobuz.com/gb-en/album/the-secret-life-of-walter-mitty-music-from-and-inspired-by-the-motion-picture-various-artists/0060253765954" target="_blank" class="externalLink" rel="nofollow">https://www.qobuz.com/gb-en/album/t...-motion-picture-various-artists/0060253765954</a><br>
<br>
Lil Yachty - Poland (Single): <a href="https://www.qobuz.com/gb-en/album/poland-lil-yachty/k32d5kpqka1pc" target="_blank" class="externalLink" rel="nofollow">https://www.qobuz.com/gb-en/album/poland-lil-yachty/k32d5kpqka1pc</a><br>
<br>
CD Quality Singles:<br>
Fetty Wap - Trap Queen: <a href="https://www.qobuz.com/gb-en/album/trap-queen-fetty-wap/0857561005216" target="_blank" class="externalLink" rel="nofollow">https://www.qobuz.com/gb-en/album/trap-queen-fetty-wap/0857561005216</a><br>
<br>
Sun Kil Moon - Black Perch: <a href="https://www.qobuz.com/gb-en/album/black-perch-sun-kil-moon/ok4wcmfosa2ia" target="_blank" class="externalLink" rel="nofollow">https://www.qobuz.com/gb-en/album/black-perch-sun-kil-moon/ok4wcmfosa2ia</a>
<div class="messageTextEndMarker">&nbsp;</div>
</blockquote>
</article>]]></description>
                <author><![CDATA[thirtytwocatsmenever]]></author>
                </item>

                
                <item>
                <title><![CDATA[【Albums (lossy)】PACK - Lea Michele [The Complete Discography]]]></title>
                <link><![CDATA[https://sharemania.us/threads/lea-michele-the-complete-discography.220094/]]></link>
                <description><![CDATA[<article>
<blockquote class="messageText SelectQuoteContainer ugc baseHtml">
<img src="https://64.media.tumblr.com/515b41545d146f21220bd4c4262e503b/f3dbbac7548101c3-50/s250x400/92140d23c76b8deec1036e39d4401a267fd5dfef.jpg" class="bbCodeImage LbImage" alt="[​IMG]" data-url="https://64.media.tumblr.com/515b41545d146f21220bd4c4262e503b/f3dbbac7548101c3-50/s250x400/92140d23c76b8deec1036e39d4401a267fd5dfef.jpg" style=""> <br>
<div class="bbCodeBlock bbCodeQuote">
<aside>
<blockquote class="quoteContainer"><div class="quote">Louder</div><div class="quoteExpand">Click to expand...</div></blockquote>
</aside>
</div><img src="https://64.media.tumblr.com/baf90935c2e82514a1171e2b717dff85/f3dbbac7548101c3-84/s400x600/53030b709aeeb9e2c69ea707deb5706d3b3c7b06.jpg" class="bbCodeImage LbImage" alt="[​IMG]" data-url="https://64.media.tumblr.com/baf90935c2e82514a1171e2b717dff85/f3dbbac7548101c3-84/s400x600/53030b709aeeb9e2c69ea707deb5706d3b3c7b06.jpg" style=""> <br>
<div class="bbCodeBlock bbCodeQuote">
<aside>
<blockquote class="quoteContainer"><div class="quote">Louder [Deluxe Edition]</div><div class="quoteExpand">Click to expand...</div></blockquote>
</aside>
</div><img src="https://64.media.tumblr.com/a32e9626331ec511f09eade620550f50/f3dbbac7548101c3-1d/s400x600/23c17ae5e29bd2c06542b38fae41b76f850b4c1d.jpg" class="bbCodeImage LbImage" alt="[​IMG]" data-url="https://64.media.tumblr.com/a32e9626331ec511f09eade620550f50/f3dbbac7548101c3-1d/s400x600/23c17ae5e29bd2c06542b38fae41b76f850b4c1d.jpg" style=""> <br>
<div class="bbCodeBlock bbCodeQuote">
<aside>
<blockquote class="quoteContainer"><div class="quote">Places</div><div class="quoteExpand">Click to expand...</div></blockquote>
</aside>
</div><img src="https://64.media.tumblr.com/f2cde47957d90ab2ac707fa3ce01aba0/f3dbbac7548101c3-f4/s400x600/912d24cbc19011c040787de892644140c966d5bb.pnj" class="bbCodeImage LbImage" alt="[​IMG]" data-url="https://64.media.tumblr.com/f2cde47957d90ab2ac707fa3ce01aba0/f3dbbac7548101c3-f4/s400x600/912d24cbc19011c040787de892644140c966d5bb.pnj" style=""> <br>
<div class="bbCodeBlock bbCodeQuote">
<aside>
<blockquote class="quoteContainer"><div class="quote">Places [Deluxe Edition]</div><div class="quoteExpand">Click to expand...</div></blockquote>
</aside>
</div><img src="https://64.media.tumblr.com/e73053a4a5c2bc2be6346e4c17536799/f3dbbac7548101c3-2b/s250x400/83a26e6147d27c4fca4e7821a60010f3f3791d81.pnj" class="bbCodeImage LbImage" alt="[​IMG]" data-url="https://64.media.tumblr.com/e73053a4a5c2bc2be6346e4c17536799/f3dbbac7548101c3-2b/s250x400/83a26e6147d27c4fca4e7821a60010f3f3791d81.pnj" style=""> <br>
<div class="bbCodeBlock bbCodeQuote">
<aside>
<blockquote class="quoteContainer"><div class="quote">Christmas In The City</div><div class="quoteExpand">Click to expand...</div></blockquote>
</aside>
</div><br>
<img src="https://64.media.tumblr.com/942cb543c8fea110d0c82cd6c425bb6b/f3dbbac7548101c3-72/s250x400/65f159b958385bb310bd4bc6afb1f1cabe3c61b9.jpg" class="bbCodeImage LbImage" alt="[​IMG]" data-url="https://64.media.tumblr.com/942cb543c8fea110d0c82cd6c425bb6b/f3dbbac7548101c3-72/s250x400/65f159b958385bb310bd4bc6afb1f1cabe3c61b9.jpg" style=""> <br>
<div class="bbCodeBlock bbCodeQuote">
<aside>
<blockquote class="quoteContainer"><div class="quote">Forever</div><div class="quoteExpand">Click to expand...</div></blockquote>
</aside>
</div><img src="https://64.media.tumblr.com/fc61b098de5c4f2bd544d26dd468e484/f3dbbac7548101c3-83/s400x600/2930cac4ad25729b0e4cd831e25f64dbb653732d.pnj" class="bbCodeImage LbImage" alt="[​IMG]" data-url="https://64.media.tumblr.com/fc61b098de5c4f2bd544d26dd468e484/f3dbbac7548101c3-83/s400x600/2930cac4ad25729b0e4cd831e25f64dbb653732d.pnj" style=""> <br>
<div class="bbCodeBlock bbCodeQuote">
<aside>
<blockquote class="quoteContainer"><div class="quote">Funny Girl (New Broadway Cast Recording)</div><div class="quoteExpand">Click to expand...</div></blockquote>
</aside>
</div><br>
<div class="bbCodeBlock bbCodeVfcHH HiddenContent">
<div class="attribution type">Hidden Content:</div>
<blockquote>You must either reply or click 'Like' to see the hidden information contained here.</blockquote>
</div>
<div class="messageTextEndMarker">&nbsp;</div>
</blockquote>
</article>]]></description>
                <author><![CDATA[1505donisbruno]]></author>
                </item>

                
                <item>
                <title><![CDATA[【Singles (lossless)】FLAC - Marco Mengoni - Due Vite (Eurovision Version) (2023)]]></title>
                <link><![CDATA[https://sharemania.us/threads/marco-mengoni-due-vite-eurovision-version-2023.220076/]]></link>
                <description><![CDATA[<article>
<blockquote class="messageText SelectQuoteContainer ugc baseHtml">
<img src="https://resources.tidal.com/images/b2c86eb7/8765/4f85/8656/fc1821bbc192/1280x1280.jpg" class="bbCodeImage LbImage" alt="[​IMG]" data-url="https://resources.tidal.com/images/b2c86eb7/8765/4f85/8656/fc1821bbc192/1280x1280.jpg" style=""> <br>
<div class="bbCodeBlock bbCodeVfcHH HiddenContent">
<div class="attribution type">Hidden Content:</div>
<blockquote>You must either reply or click 'Like' to see the hidden information contained here.</blockquote>
</div>
<div class="messageTextEndMarker">&nbsp;</div>
 </blockquote>
</article>]]></description>
                <author><![CDATA[Giulya]]></author>
                </item>

                
                <item>
                <title><![CDATA[【Albums (lossy)】PACK - Vanessa Hudgens [Complete Solo Discography: 2006-2023]]]></title>
                <link><![CDATA[https://sharemania.us/threads/vanessa-hudgens-complete-solo-discography-2006-2023.220078/]]></link>
                <description><![CDATA[<article>
<blockquote class="messageText SelectQuoteContainer ugc baseHtml">
from and to us eternal diva and queen from disney channel, love u baby V<br>
<br>
<img src="https://64.media.tumblr.com/a8808488ea7c986e87862fb63c7b43a4/b3b2c6805cd1478b-fd/s400x600/704e55caa9c0b55f3ab9bc7bdb7b3f5c7b115397.jpg" class="bbCodeImage LbImage" alt="[​IMG]" data-url="https://64.media.tumblr.com/a8808488ea7c986e87862fb63c7b43a4/b3b2c6805cd1478b-fd/s400x600/704e55caa9c0b55f3ab9bc7bdb7b3f5c7b115397.jpg" style=""><br>
<div class="bbCodeBlock bbCodeQuote">
<aside>
<blockquote class="quoteContainer"><div class="quote">V</div><div class="quoteExpand">Click to expand...</div></blockquote>
</aside>
</div><br>
<img src="https://64.media.tumblr.com/1e95922415ce161fe1045dd8a4c8f3e2/b3b2c6805cd1478b-a2/s400x600/ad579c8ce2b05e7b3ce05dbc2673b1649f6e0da9.pnj" class="bbCodeImage LbImage" alt="[​IMG]" data-url="https://64.media.tumblr.com/1e95922415ce161fe1045dd8a4c8f3e2/b3b2c6805cd1478b-a2/s400x600/ad579c8ce2b05e7b3ce05dbc2673b1649f6e0da9.pnj" style=""><br>
<div class="bbCodeBlock bbCodeQuote">
<aside>
<blockquote class="quoteContainer"><div class="quote">V (Deluxe Edition)</div><div class="quoteExpand">Click to expand...</div></blockquote>
</aside>
</div><br>
<img src="https://64.media.tumblr.com/5a6a27bf7fe0c406a88a75573b5ba4a9/b3b2c6805cd1478b-69/s500x750/fa3b577910054ad1f9d212324a9809b44f17e7bc.jpg" class="bbCodeImage LbImage" alt="[​IMG]" data-url="https://64.media.tumblr.com/5a6a27bf7fe0c406a88a75573b5ba4a9/b3b2c6805cd1478b-69/s500x750/fa3b577910054ad1f9d212324a9809b44f17e7bc.jpg" style=""><br>
<div class="bbCodeBlock bbCodeQuote">
<aside>
<blockquote class="quoteContainer"><div class="quote">Identified</div><div class="quoteExpand">Click to expand...</div></blockquote>
</aside>
</div><br>
<img src="https://64.media.tumblr.com/32559c9f0197b7611c57885489b83e55/b3b2c6805cd1478b-db/s400x600/90276defc3566ab799773b4462846e20f803157d.jpg" class="bbCodeImage LbImage" alt="[​IMG]" data-url="https://64.media.tumblr.com/32559c9f0197b7611c57885489b83e55/b3b2c6805cd1478b-db/s400x600/90276defc3566ab799773b4462846e20f803157d.jpg" style=""><br>
<div class="bbCodeBlock bbCodeQuote">
<aside>
<blockquote class="quoteContainer"><div class="quote">Identified [Japanese Edition]</div><div class="quoteExpand">Click to expand...</div></blockquote>
</aside>
</div><br>
<div style="text-align: center">
<div class="bbCodeBlock bbCodeQuote">
<aside>
<blockquote class="quoteContainer"><div class="quote"><b><i><span style="text-decoration: underline"><span style="font-size: 26px"><span style="color: #ff99cc">B O N U S</span></span></span></i></b></div><div class="quoteExpand">Click to expand...</div></blockquote>
</aside>
</div><img src="https://64.media.tumblr.com/b1519f2ef032666aa2e3ba888ce5b161/b3b2c6805cd1478b-81/s500x750/00bd59338132f69dbc3b937838e6c987f253427f.jpg" class="bbCodeImage LbImage" alt="[​IMG]" data-url="https://64.media.tumblr.com/b1519f2ef032666aa2e3ba888ce5b161/b3b2c6805cd1478b-81/s500x750/00bd59338132f69dbc3b937838e6c987f253427f.jpg" style=""><br>
<div class="bbCodeBlock bbCodeQuote">
<aside>
<blockquote class="quoteContainer"><div class="quote">HUDGENS [A NEW COMPILATION WITH NEW AND RARE SONGS]</div><div class="quoteExpand">Click to expand...</div></blockquote>
</aside>
</div><img src="https://64.media.tumblr.com/7dbface37fe4744d811966dbe1565f57/9b64ed4f43378851-43/s640x960/f30bf1646f7c019d637b54bfefcd1f1a95a8d190.jpg" class="bbCodeImage LbImage" alt="[​IMG]" data-url="https://64.media.tumblr.com/7dbface37fe4744d811966dbe1565f57/9b64ed4f43378851-43/s640x960/f30bf1646f7c019d637b54bfefcd1f1a95a8d190.jpg" style=""> ​</div><br>
<br>
<div class="bbCodeBlock bbCodeVfcHH HiddenContent">
<div class="attribution type">Hidden Content:</div>
<blockquote>You must either reply or click 'Like' to see the hidden information contained here.</blockquote>
</div>
<div class="messageTextEndMarker">&nbsp;</div>
</blockquote>
</article>]]></description>
                <author><![CDATA[1505donisbruno]]></author>
                </item>

                
                <item>
                <title><![CDATA[【Albums (lossy)】iTunes Plus - Corbin Bleu - Another Side [Album MP3]]]></title>
                <link><![CDATA[https://sharemania.us/threads/corbin-bleu-another-side-album-mp3.220093/]]></link>
                <description><![CDATA[<article>
<blockquote class="messageText SelectQuoteContainer ugc baseHtml">
<img src="https://64.media.tumblr.com/4ce66673a2c33e4f4098ccd41e6fcc37/4e6e6fd1f50b711e-77/s500x750/67c4a20e872aac46201a18d0f2a528b426f1e234.jpg" class="bbCodeImage LbImage" alt="[​IMG]" data-url="https://64.media.tumblr.com/4ce66673a2c33e4f4098ccd41e6fcc37/4e6e6fd1f50b711e-77/s500x750/67c4a20e872aac46201a18d0f2a528b426f1e234.jpg" style=""> <br>
<img src="https://64.media.tumblr.com/54b274eb83021df48af5cf8f1c994ee3/4e6e6fd1f50b711e-93/s640x960/8c5de9ef14a20c16b783b30790e2c35d73ec076e.jpg" class="bbCodeImage LbImage" alt="[​IMG]" data-url="https://64.media.tumblr.com/54b274eb83021df48af5cf8f1c994ee3/4e6e6fd1f50b711e-93/s640x960/8c5de9ef14a20c16b783b30790e2c35d73ec076e.jpg" style=""> <br>
<div class="bbCodeBlock bbCodeVfcHH HiddenContent">
<div class="attribution type">Hidden Content:</div>
<blockquote>You must either reply or click 'Like' to see the hidden information contained here.</blockquote>
</div>
<div class="messageTextEndMarker">&nbsp;</div>
</blockquote>
</article>]]></description>
                <author><![CDATA[1505donisbruno]]></author>
                </item>

                
                <item>
                <title><![CDATA[【Albums (lossless)】FLAC - n.SSign (엔싸인) - PRE-DEBUT MINI ALBUM 'SALTY' (2023.04.18) [FLAC Genie 24 bits/96.0 kHz]]]></title>
                <link><![CDATA[https://sharemania.us/threads/n-ssign-%EC%97%94%EC%8B%B8%EC%9D%B8-pre-debut-mini-album-salty-2023-04-18-flac-genie-24-bits-96-0-khz.220085/]]></link>
                <description><![CDATA[<article>
<blockquote class="messageText SelectQuoteContainer ugc baseHtml">
<div style="text-align: center"><br>
<a href="https://sharemania.us/threads/some-kpop-albums.220080/#post-4491905" class="internalLink">https://sharemania.us/threads/some-kpop-albums.220080/#post-4491905</a><br>
<br>
<img src="https://i.ibb.co/wp11w72/4085442.jpg" class="bbCodeImage LbImage" alt="[​IMG]" data-url="https://i.ibb.co/wp11w72/4085442.jpg" style=""><br>
<div class="bbCodeBlock bbCodeVfcHH HiddenContent">
<div class="attribution type">Hidden Content:</div>
<blockquote>You must either reply or click 'Like' to see the hidden information contained here.</blockquote>
</div></div>
<div class="messageTextEndMarker">&nbsp;</div>
</blockquote>
</article>]]></description>
                <author><![CDATA[DETOXIC]]></author>
                </item>

                </channel></rss>